<?xml version="1.0" standalone="no"?>
<!DOCTYPE svg PUBLIC "-//W3C//DTD SVG 20010904//EN"
 "http://www.w3.org/TR/2001/REC-SVG-20010904/DTD/svg10.dtd">
<svg version="1.0" xmlns="http://www.w3.org/2000/svg"
 width="820.000000pt" height="820.000000pt" viewBox="0 0 820.000000 820.000000"
 preserveAspectRatio="xMidYMid meet">
<metadata>
Created by potrace 1.11, written by Peter Selinger 2001-2013
</metadata>
<g transform="translate(0.000000,820.000000) scale(0.100000,-0.100000)"
fill="#000000" stroke="none">
<path d="M3082 6859 c-154 -30 -300 -171 -342 -329 -7 -24 -12 -77 -12 -118 1
-235 181 -425 418 -440 188 -11 360 88 439 253 158 335 -136 706 -503 634z"/>
<path d="M3104 5706 c-213 -93 -394 -589 -469 -1282 -122 -1137 89 -2392 439
-2609 76 -47 135 -43 256 17 138 68 252 159 450 357 188 189 372 403 558 650
136 181 387 554 492 729 40 67 75 122 79 122 3 0 7 -120 8 -268 4 -388 27
-685 74 -967 92 -544 240 -784 384 -623 180 199 298 947 282 1783 -4 165 -11
356 -17 425 -54 650 -179 1082 -326 1130 -32 11 -42 8 -137 -38 -121 -58 -223
-132 -369 -268 -294 -273 -647 -707 -957 -1177 -46 -70 -88 -127 -92 -127 -4
0 -8 111 -8 247 -2 948 -216 1767 -494 1894 -49 22 -109 24 -153 5z"/>
</g>
</svg>
