<svg width="19" height="21" viewBox="0 0 19 21" fill="none" xmlns="http://www.w3.org/2000/svg">
<path d="M0.5 16.7959C0.5 14.5125 2.51193 12.593 5.0646 12.593H13.7468C16.2994 12.593 18.3114 14.5125 18.3114 16.7959V19.655H17.8643V18.8114V16.7959C17.8643 14.6129 16.004 12.9367 13.7468 12.9367H5.0646C2.80735 12.9367 0.947028 14.6129 0.947028 16.7959V18.8114V19.4832V19.655H0.5V16.7959Z" fill="black" stroke="#ADADAD"/>
<path d="M4.53076 5.37463C4.53076 2.69155 6.72232 0.5 9.40544 0.5C12.0886 0.5 14.2801 2.69155 14.2801 5.37463C14.2801 8.05775 12.0885 10.2494 9.40544 10.2494C6.72233 10.2494 4.53076 8.05775 4.53076 5.37463ZM13.7445 5.37463C13.7445 2.96915 11.8109 1.03563 9.40544 1.03563C6.99996 1.03563 5.06638 2.96915 5.06638 5.37463C5.06638 7.7801 6.99994 9.71372 9.40544 9.71372C11.8109 9.71372 13.7445 7.7801 13.7445 5.37463Z" fill="black" stroke="#ADADAD"/>
</svg>
