<svg width="17" height="18" viewBox="0 0 17 18" fill="none" xmlns="http://www.w3.org/2000/svg">
<mask id="path-1-inside-1" fill="white">
<path d="M10.6561 15.4977C10.5008 16.8334 9.37343 17.8698 8.00581 17.8698C6.6382 17.8698 5.51087 16.8334 5.35548 15.4977H0.785684C0.35114 15.4977 0 15.1448 0 14.7079V13.7581C0 12.7984 0.773843 12.0186 1.7274 12.0186C1.81289 12.0186 1.88372 11.9472 1.88372 11.8599V8.06488C1.88372 5.35962 3.62596 3.00591 6.12209 2.19504V1.89794C6.12209 0.850229 6.96656 0 8.00581 0C9.04672 0 9.88953 0.848452 9.88953 1.89794V2.19508C12.3856 3.00606 14.1279 5.36019 14.1279 8.06488V11.8599C14.1279 11.9489 14.1971 12.0186 14.2842 12.0186C15.2363 12.0186 16.0116 12.7981 16.0116 13.7581V14.7079C16.0116 15.1428 15.659 15.4977 15.2259 15.4977H10.6561ZM9.70409 15.4977H6.30754C6.45518 16.3074 7.15937 16.9209 8.00581 16.9209C8.85225 16.9209 9.55645 16.3074 9.70409 15.4977ZM15.0698 13.7581C15.0698 13.3226 14.7165 12.9674 14.2842 12.9674C13.677 12.9674 13.186 12.4731 13.186 11.8599V8.06488C13.186 5.66975 11.571 3.59917 9.30126 3.01084L8.94767 2.91918V1.89794C8.94767 1.37263 8.5267 0.948837 8.00581 0.948837C7.48661 0.948837 7.06395 1.37438 7.06395 1.89794V2.91917L6.71035 3.01082C4.4405 3.59909 2.82558 5.66918 2.82558 8.06488V11.8599C2.82558 12.4711 2.3332 12.9674 1.7274 12.9674C1.29407 12.9674 0.94186 13.3224 0.94186 13.7581V14.5488H15.0698V13.7581Z"/>
</mask>
<path d="M10.6561 15.4977V13.4977H8.87532L8.66954 15.2666L10.6561 15.4977ZM5.35548 15.4977L7.34208 15.2666L7.13631 13.4977H5.35548V15.4977ZM6.12209 2.19504L6.74001 4.09719L8.12209 3.64822V2.19504H6.12209ZM9.88953 2.19508H7.88953V3.64819L9.27153 4.09721L9.88953 2.19508ZM9.70409 15.4977L11.6716 15.8564L12.1017 13.4977H9.70409V15.4977ZM6.30754 15.4977V13.4977H3.9099L4.33998 15.8564L6.30754 15.4977ZM9.30126 3.01084L8.79943 4.94685L8.79943 4.94685L9.30126 3.01084ZM8.94767 2.91918H6.94767V4.46687L8.44584 4.8552L8.94767 2.91918ZM7.06395 2.91917L7.56571 4.85521L9.06395 4.46692V2.91917H7.06395ZM6.71035 3.01082L6.2086 1.07478L6.2086 1.07478L6.71035 3.01082ZM0.94186 14.5488H-1.05814V16.5488H0.94186V14.5488ZM15.0698 14.5488V16.5488H17.0698V14.5488H15.0698ZM8.66954 15.2666C8.62874 15.6173 8.33487 15.8698 8.00581 15.8698V19.8698C10.412 19.8698 12.3728 18.0494 12.6427 15.7288L8.66954 15.2666ZM8.00581 15.8698C7.67676 15.8698 7.38289 15.6173 7.34208 15.2666L3.36888 15.7288C3.63884 18.0494 5.59964 19.8698 8.00581 19.8698V15.8698ZM5.35548 13.4977H0.785684V17.4977H5.35548V13.4977ZM0.785684 13.4977C1.46526 13.4977 2 14.0498 2 14.7079H-2C-2 16.2398 -0.762983 17.4977 0.785684 17.4977V13.4977ZM2 14.7079V13.7581H-2V14.7079H2ZM2 13.7581C2 13.8894 1.89196 14.0186 1.7274 14.0186V10.0186C-0.344273 10.0186 -2 11.7074 -2 13.7581H2ZM1.7274 14.0186C2.94162 14.0186 3.88372 13.0275 3.88372 11.8599H-0.116279C-0.116279 10.8669 0.684173 10.0186 1.7274 10.0186V14.0186ZM3.88372 11.8599V8.06488H-0.116279V11.8599H3.88372ZM3.88372 8.06488C3.88372 6.22755 5.06662 4.64079 6.74001 4.09719L5.50418 0.292891C2.1853 1.37103 -0.116279 4.49169 -0.116279 8.06488H3.88372ZM8.12209 2.19504V1.89794H4.12209V2.19504H8.12209ZM8.12209 1.89794C8.12209 1.92183 8.11028 1.94832 8.0936 1.96512C8.08548 1.9733 8.07383 1.98199 8.05755 1.98894C8.03989 1.99647 8.02106 2 8.00581 2V-2C5.84826 -2 4.12209 -0.240556 4.12209 1.89794H8.12209ZM8.00581 2C7.92849 2 7.88953 1.93931 7.88953 1.89794H11.8895C11.8895 -0.242404 10.165 -2 8.00581 -2V2ZM7.88953 1.89794V2.19508H11.8895V1.89794H7.88953ZM9.27153 4.09721C10.9449 4.64089 12.1279 6.22811 12.1279 8.06488H16.1279C16.1279 4.49227 13.8263 1.37122 10.5075 0.292959L9.27153 4.09721ZM12.1279 8.06488V11.8599H16.1279V8.06488H12.1279ZM12.1279 11.8599C12.1279 13.0298 13.0689 14.0186 14.2842 14.0186V10.0186C15.3253 10.0186 16.1279 10.8681 16.1279 11.8599H12.1279ZM14.2842 14.0186C14.1195 14.0186 14.0116 13.8904 14.0116 13.7581H18.0116C18.0116 11.7058 16.3531 10.0186 14.2842 10.0186V14.0186ZM14.0116 13.7581V14.7079H18.0116V13.7581H14.0116ZM14.0116 14.7079C14.0116 14.0488 14.544 13.4977 15.2259 13.4977V17.4977C16.7741 17.4977 18.0116 16.2369 18.0116 14.7079H14.0116ZM15.2259 13.4977H10.6561V17.4977H15.2259V13.4977ZM9.70409 13.4977H6.30754V17.4977H9.70409V13.4977ZM4.33998 15.8564C4.65593 17.5892 6.16556 18.9209 8.00581 18.9209V14.9209C8.15319 14.9209 8.25443 15.0255 8.2751 15.1389L4.33998 15.8564ZM8.00581 18.9209C9.84607 18.9209 11.3557 17.5892 11.6716 15.8564L7.73652 15.1389C7.7572 15.0255 7.85844 14.9209 8.00581 14.9209V18.9209ZM17.0698 13.7581C17.0698 12.2297 15.8328 10.9674 14.2842 10.9674V14.9674C13.6003 14.9674 13.0698 14.4155 13.0698 13.7581H17.0698ZM14.2842 10.9674C14.7966 10.9674 15.186 11.3836 15.186 11.8599H11.186C11.186 13.5626 12.5574 14.9674 14.2842 14.9674V10.9674ZM15.186 11.8599V8.06488H11.186V11.8599H15.186ZM15.186 8.06488C15.186 4.76246 12.9589 1.89281 9.80308 1.07482L8.79943 4.94685C10.1832 5.30553 11.186 6.57703 11.186 8.06488H15.186ZM9.80308 1.07482L9.4495 0.983166L8.44584 4.8552L8.79943 4.94685L9.80308 1.07482ZM10.9477 2.91918V1.89794H6.94767V2.91918H10.9477ZM10.9477 1.89794C10.9477 0.281962 9.64512 -1.05116 8.00581 -1.05116V2.94884C7.40828 2.94884 6.94767 2.4633 6.94767 1.89794H10.9477ZM8.00581 -1.05116C6.36813 -1.05116 5.06395 0.283783 5.06395 1.89794H9.06395C9.06395 2.46498 8.6051 2.94884 8.00581 2.94884V-1.05116ZM5.06395 1.89794V2.91917H9.06395V1.89794H5.06395ZM6.5622 0.983138L6.2086 1.07478L7.21211 4.94685L7.56571 4.85521L6.5622 0.983138ZM6.2086 1.07478C3.0527 1.89268 0.825581 4.76186 0.825581 8.06488H4.82558C4.82558 6.5765 5.8283 5.30549 7.21211 4.94685L6.2086 1.07478ZM0.825581 8.06488V11.8599H4.82558V8.06488H0.825581ZM0.825581 11.8599C0.825581 11.3823 1.21296 10.9674 1.7274 10.9674V14.9674C3.45344 14.9674 4.82558 13.5599 4.82558 11.8599H0.825581ZM1.7274 10.9674C0.176546 10.9674 -1.05814 12.2308 -1.05814 13.7581H2.94186C2.94186 14.4139 2.4116 14.9674 1.7274 14.9674V10.9674ZM-1.05814 13.7581V14.5488H2.94186V13.7581H-1.05814ZM0.94186 16.5488H15.0698V12.5488H0.94186V16.5488ZM17.0698 14.5488V13.7581H13.0698V14.5488H17.0698Z" fill="white" mask="url(#path-1-inside-1)"/>
</svg>
