<svg width="41" height="42" viewBox="0 0 41 42" fill="none" xmlns="http://www.w3.org/2000/svg">
<path d="M39.7143 20.8519C39.7143 32.1092 30.9189 41.2037 20.1071 41.2037C9.2954 41.2037 0.5 32.1092 0.5 20.8519C0.5 9.59454 9.2954 0.5 20.1071 0.5C30.9189 0.5 39.7143 9.59454 39.7143 20.8519Z" fill="#27AE60" fill-opacity="0.3" stroke="#64DC97"/>
<circle cx="20.1071" cy="20.4627" r="14.9322" fill="#63DD97"/>
<path d="M15.7847 18.1863V29.6685C15.7847 29.9679 15.8939 30.2269 16.1128 30.4455C16.3278 30.6606 16.5823 30.7688 16.8754 30.7722C17.1685 30.7688 17.4231 30.6605 17.6383 30.4455C17.857 30.2269 17.9662 29.9679 17.9662 29.6685V18.1863C18.2943 18.0714 19.5242 16.9752 19.5242 16.6238V12.0056C19.5242 11.8563 19.4693 11.7267 19.3601 11.6172C19.2507 11.508 19.1211 11.4532 18.9717 11.4532C18.822 11.4532 18.6926 11.508 18.5834 11.6172C18.4739 11.7269 18.4193 11.8563 18.4193 12.0056V15.5965C18.4193 15.7462 18.3645 15.8756 18.2553 15.9848C18.1458 16.0943 18.0164 16.1487 17.8669 16.1487C17.7171 16.1487 17.5877 16.0943 17.4785 15.9848C17.3693 15.8756 17.3145 15.746 17.3145 15.5965V12.0056C17.3145 11.8563 17.2596 11.7267 17.1504 11.6172C17.0412 11.508 16.9116 11.4532 16.7621 11.4532C16.6123 11.4532 16.4829 11.508 16.3737 11.6172C16.2643 11.7269 16.2097 11.8563 16.2097 12.0056V15.5965C16.2097 15.7462 16.1548 15.8756 16.0456 15.9848C15.9362 16.0943 15.8068 16.1487 15.6572 16.1487C15.5075 16.1487 15.3781 16.0943 15.2689 15.9848C15.1594 15.8756 15.1048 15.746 15.1048 15.5965V12.0056C15.1048 11.8563 15.0502 11.7267 14.9408 11.6172C14.8315 11.508 14.702 11.4532 14.5524 11.4532C14.4026 11.4532 14.2732 11.508 14.1641 11.6172C14.0548 11.7269 14 11.8563 14 12.0056V16.6236C14.0001 16.975 15.4566 18.0712 15.7847 18.1863Z" fill="white"/>
<path d="M16.8894 30.7734C16.8847 30.7734 16.8801 30.772 16.8754 30.772C16.8706 30.772 16.8663 30.7734 16.8613 30.7734H16.8894Z" fill="white"/>
<path d="M23.944 31C23.9392 31 23.9347 30.9986 23.9299 30.9986C23.9251 30.9986 23.9206 31 23.9159 31H23.944Z" fill="white"/>
<path d="M21.5851 20.944H22.8391V29.8952C22.8391 30.1944 22.9483 30.4535 23.1669 30.672C23.3821 30.8871 23.6366 30.9954 23.9298 30.9988C24.2227 30.9954 24.4774 30.8871 24.6927 30.672C24.9113 30.4535 25.0207 30.1944 25.0207 29.8952V11.5524C25.0207 11.4031 24.9659 11.2735 24.8567 11.1641C24.7473 11.0548 24.6179 11 24.4684 11H24.0714C23.3117 11 22.6614 11.2706 22.1205 11.8114C21.5797 12.3525 21.3092 13.0028 21.3092 13.7623V20.6678C21.3092 20.7426 21.3366 20.8074 21.3912 20.862C21.4456 20.9166 21.5104 20.944 21.5851 20.944Z" fill="white"/>
</svg>
