<svg width="41" height="42" viewBox="0 0 41 42" fill="none" xmlns="http://www.w3.org/2000/svg">
<path d="M39.7143 20.8519C39.7143 32.1092 30.9189 41.2037 20.1071 41.2037C9.2954 41.2037 0.5 32.1092 0.5 20.8519C0.5 9.59454 9.2954 0.5 20.1071 0.5C30.9189 0.5 39.7143 9.59454 39.7143 20.8519Z" fill="#EB5D5C" fill-opacity="0.3" stroke="#FF5F5F"/>
<circle cx="20.1071" cy="20.4627" r="14.9322" fill="#FF5F5F"/>
<path d="M20 16.021L19.595 15.4614C19.2832 15.0308 18.9329 14.6663 18.5508 14.3711L18.5507 14.371C17.7989 13.7901 16.9545 13.5 16.0283 13.5C14.776 13.5 13.6312 13.9991 12.7953 14.9049L20 16.021ZM20 16.021L20.405 15.4615M20 16.021L20.405 15.4615M20.405 15.4615C20.7169 15.0306 21.0672 14.6663 21.4492 14.371C22.2011 13.7901 23.0456 13.5 23.9717 13.5C25.224 13.5 26.3687 13.9991 27.2046 14.9049C28.0323 15.802 28.5 17.0406 28.5 18.4046C28.5 19.7819 27.993 21.065 26.83 22.4669L26.83 22.467C25.7742 23.7399 24.2465 25.0427 22.422 26.596L22.422 26.5961L22.4059 26.6098C21.7906 27.1338 21.0918 27.7288 20.3666 28.3625L20.3663 28.3627C20.2655 28.451 20.1353 28.5 20 28.5C19.8647 28.5 19.7347 28.4511 19.6334 28.3625L19.6331 28.3622C18.9024 27.7239 18.199 27.1249 17.5805 26.5983L17.5784 26.5965L17.5784 26.5965M20.405 15.4615L17.5784 26.5965M17.5784 26.5965C15.7537 25.0428 14.226 23.7399 13.1701 22.4671C12.0071 21.065 11.5 19.7819 11.5 18.4047C11.5 17.0406 11.9677 15.802 12.7953 14.9049L17.5784 26.5965Z" stroke="white"/>
</svg>
