<svg width="23" height="27" viewBox="0 0 23 27" fill="none" xmlns="http://www.w3.org/2000/svg">
<g clip-path="url(#clip0)">
<path d="M20.1416 0.860962C18.1392 1.51476 16.1293 2.14564 14.122 2.78456C12.2632 2.1987 10.3882 1.66374 8.53233 1.06875C6.44563 1.73548 4.30585 2.43062 2.5127 2.99232C2.5127 9.27611 2.5127 15.1315 2.5127 20.6398C4.51677 20.0001 6.52127 19.3617 8.52561 18.7229C10.3901 19.2978 12.2581 19.8617 14.122 20.4387C16.2929 19.7417 18.2094 19.1193 20.1416 18.5151C20.1416 12.3896 20.1416 6.11279 20.1416 0.860962ZM9.17729 2.617L13.477 3.93739V18.8905L9.17729 17.5701V2.617ZM7.88737 2.62366V17.5767L3.80262 18.8837V3.93062L7.88737 2.62366ZM18.8517 2.62366V17.57L14.767 18.877V3.93062L18.8517 2.62366Z" fill="white"/>
</g>
<defs>
<clipPath id="clip0">
<rect x="0.577637" y="0.000976562" width="21.4987" height="26.8734" fill="white"/>
</clipPath>
</defs>
</svg>
