<svg width="19" height="24" viewBox="0 0 19 24" fill="none" xmlns="http://www.w3.org/2000/svg">
<path d="M16.9304 0.744171C15.1975 1.30996 13.4581 1.85591 11.7211 2.40882C10.1125 1.90183 8.48988 1.43889 6.88386 0.923984C5.07806 1.50097 3.22633 2.10253 1.67456 2.58861C1.67456 8.02651 1.67456 13.0937 1.67456 17.8604C3.40885 17.3069 5.14352 16.7544 6.87805 16.2016C8.49158 16.6991 10.1081 17.1871 11.7211 17.6864C13.5997 17.0833 15.2582 16.5447 16.9304 16.0218C16.9304 10.7209 16.9304 5.28903 16.9304 0.744171ZM7.442 2.26382L11.1629 3.40646V16.3466L7.442 15.204V2.26382ZM6.32572 2.26958V15.2097L2.79084 16.3408V3.4006L6.32572 2.26958ZM15.8141 2.26958V15.2039L12.2792 16.335V3.4006L15.8141 2.26958Z" fill="#9D9D9D"/>
</svg>
