<svg width="16" height="18" viewBox="0 0 16 18" fill="none" xmlns="http://www.w3.org/2000/svg">
<path d="M15.9304 0.860443C14.1975 1.42623 12.4581 1.97218 10.7211 2.5251C9.11254 2.0181 7.48988 1.55516 5.88386 1.04026C4.07806 1.61724 2.22633 2.2188 0.674561 2.70489C0.674561 8.14278 0.674561 13.21 0.674561 17.9767C2.40885 17.4231 4.14352 16.8707 5.87805 16.3179C7.49158 16.8154 9.10808 17.3034 10.7211 17.8027C12.5997 17.1995 14.2582 16.661 15.9304 16.1381C15.9304 10.8372 15.9304 5.4053 15.9304 0.860443ZM6.442 2.38009L10.1629 3.52273V16.4629L6.442 15.3202V2.38009ZM5.32572 2.38586V15.326L1.79084 16.457V3.51687L5.32572 2.38586ZM14.8141 2.38586V15.3202L11.2792 16.4512V3.51687L14.8141 2.38586Z" fill="white"/>
</svg>
