<svg width="41" height="42" viewBox="0 0 41 42" fill="none" xmlns="http://www.w3.org/2000/svg">
<path d="M39.7143 20.8519C39.7143 32.1092 30.9189 41.2037 20.1071 41.2037C9.2954 41.2037 0.5 32.1092 0.5 20.8519C0.5 9.59454 9.2954 0.5 20.1071 0.5C30.9189 0.5 39.7143 9.59454 39.7143 20.8519Z" fill="#F2994A" fill-opacity="0.3" stroke="#F2994A"/>
<circle cx="20.1071" cy="20.4627" r="14.9322" fill="#FAA051"/>
<path d="M26.1579 21.1412V27.8C26.1579 27.9105 26.0684 28 25.9579 28H14.0421C13.9316 28 13.8421 27.9105 13.8421 27.8V21.1412C13.8421 21.0307 13.7526 20.9412 13.6421 20.9412H11.4851C11.3066 20.9412 11.2175 20.7251 11.3441 20.5993L19.8605 12.1386C19.9379 12.0617 20.0627 12.0611 20.1409 12.1372L23.1822 15.098C23.309 15.2214 23.5217 15.1316 23.5217 14.9547V13.3765C23.5217 13.266 23.6113 13.1765 23.7217 13.1765H24.5368C24.6473 13.1765 24.7368 13.266 24.7368 13.3765V16.6227C24.7368 16.6759 24.7581 16.727 24.7959 16.7645L28.6559 20.5993C28.7825 20.7251 28.6934 20.9412 28.5149 20.9412H26.3579C26.2474 20.9412 26.1579 21.0307 26.1579 21.1412Z" stroke="white"/>
</svg>
