<svg width="81" height="81" viewBox="0 0 81 81" fill="none" xmlns="http://www.w3.org/2000/svg">
<g filter="url(#filter0_dd)">
<circle cx="40.5" cy="40.5" r="18.5" fill="white"/>
</g>
<path d="M53.55 40.05H52.6387C52.4061 33.7081 47.2918 28.5939 40.95 28.3613V27.45C40.95 27.2012 40.7488 27 40.5 27C40.2512 27 40.05 27.2012 40.05 27.45V28.3613C33.7081 28.5939 28.5939 33.7081 28.3613 40.05H27.45C27.2012 40.05 27 40.2512 27 40.5C27 40.7488 27.2012 40.95 27.45 40.95H28.3613C28.5939 47.2918 33.7081 52.4061 40.05 52.6387V53.55C40.05 53.7988 40.2512 54 40.5 54C40.7488 54 40.95 53.7988 40.95 53.55V52.6387C47.2918 52.4061 52.4061 47.2918 52.6387 40.95H53.55C53.7988 40.95 54 40.7488 54 40.5C54 40.2512 53.7988 40.05 53.55 40.05ZM40.95 51.7387V50.85C40.95 50.6011 40.7488 50.4 40.5 50.4C40.2512 50.4 40.05 50.6011 40.05 50.85V51.7387C34.2045 51.507 29.493 46.7955 29.2613 40.95H30.15C30.3988 40.95 30.6 40.7488 30.6 40.5C30.6 40.2512 30.3988 40.05 30.15 40.05H29.2613C29.493 34.2045 34.2045 29.493 40.05 29.2613V30.15C40.05 30.3988 40.2512 30.6 40.5 30.6C40.7488 30.6 40.95 30.3988 40.95 30.15V29.2613C46.7955 29.493 51.507 34.2045 51.7387 40.05H50.85C50.6011 40.05 50.4 40.2512 50.4 40.5C50.4 40.7488 50.6011 40.95 50.85 40.95H51.7387C51.507 46.7955 46.7955 51.507 40.95 51.7387Z" fill="#F87372"/>
<path d="M45.8999 40.05H43.6139C43.4154 38.6734 42.3265 37.5844 40.9499 37.386V35.1C40.9499 34.8511 40.7488 34.65 40.4999 34.65C40.2511 34.65 40.0499 34.8511 40.0499 35.1V37.386C38.6734 37.5844 37.5844 38.6739 37.3859 40.05H35.0999C34.8511 40.05 34.6499 40.2511 34.6499 40.5C34.6499 40.7488 34.8511 40.95 35.0999 40.95H37.3859C37.5844 42.3265 38.6734 43.4155 40.0499 43.614V45.9C40.0499 46.1488 40.2511 46.35 40.4999 46.35C40.7488 46.35 40.9499 46.1488 40.9499 45.9V43.614C42.3265 43.4155 43.4154 42.3261 43.6139 40.95H45.8999C46.1487 40.95 46.3499 40.7488 46.3499 40.5C46.3499 40.2511 46.1487 40.05 45.8999 40.05Z" fill="#F87372"/>
<defs>
<filter id="filter0_dd" x="0" y="0" width="81" height="81" filterUnits="userSpaceOnUse" color-interpolation-filters="sRGB">
<feFlood flood-opacity="0" result="BackgroundImageFix"/>
<feColorMatrix in="SourceAlpha" type="matrix" values="0 0 0 0 0 0 0 0 0 0 0 0 0 0 0 0 0 0 127 0"/>
<feOffset dx="2" dy="2"/>
<feGaussianBlur stdDeviation="10"/>
<feColorMatrix type="matrix" values="0 0 0 0 0 0 0 0 0 0 0 0 0 0 0 0 0 0 0.06 0"/>
<feBlend mode="normal" in2="BackgroundImageFix" result="effect1_dropShadow"/>
<feColorMatrix in="SourceAlpha" type="matrix" values="0 0 0 0 0 0 0 0 0 0 0 0 0 0 0 0 0 0 127 0"/>
<feOffset dx="-2" dy="-2"/>
<feGaussianBlur stdDeviation="10"/>
<feColorMatrix type="matrix" values="0 0 0 0 0 0 0 0 0 0 0 0 0 0 0 0 0 0 0.06 0"/>
<feBlend mode="normal" in2="effect1_dropShadow" result="effect2_dropShadow"/>
<feBlend mode="normal" in="SourceGraphic" in2="effect2_dropShadow" result="shape"/>
</filter>
</defs>
</svg>
