<svg width="37" height="37" viewBox="0 0 37 37" fill="none" xmlns="http://www.w3.org/2000/svg">
<circle cx="18.5" cy="18.5" r="18.5" fill="white"/>
<path d="M31.55 18.05H30.6387C30.4061 11.7081 25.2918 6.5939 18.95 6.36125V5.45C18.95 5.20115 18.7488 5 18.5 5C18.2511 5 18.05 5.20115 18.05 5.45V6.36125C11.7081 6.5939 6.5939 11.7081 6.36125 18.05H5.45C5.20115 18.05 5 18.2511 5 18.5C5 18.7488 5.20115 18.95 5.45 18.95H6.36125C6.5939 25.2918 11.7081 30.4061 18.05 30.6387V31.55C18.05 31.7988 18.2511 32 18.5 32C18.7488 32 18.95 31.7988 18.95 31.55V30.6387C25.2918 30.4061 30.4061 25.2918 30.6387 18.95H31.55C31.7988 18.95 32 18.7488 32 18.5C32 18.2511 31.7988 18.05 31.55 18.05ZM18.95 29.7387V28.85C18.95 28.6011 18.7488 28.4 18.5 28.4C18.2511 28.4 18.05 28.6011 18.05 28.85V29.7387C12.2045 29.507 7.493 24.7955 7.26125 18.95H8.15C8.39885 18.95 8.6 18.7488 8.6 18.5C8.6 18.2511 8.39885 18.05 8.15 18.05H7.26125C7.493 12.2045 12.2045 7.493 18.05 7.26125V8.15C18.05 8.39885 18.2511 8.6 18.5 8.6C18.7488 8.6 18.95 8.39885 18.95 8.15V7.26125C24.7955 7.493 29.507 12.2045 29.7387 18.05H28.85C28.6011 18.05 28.4 18.2511 28.4 18.5C28.4 18.7488 28.6011 18.95 28.85 18.95H29.7387C29.507 24.7955 24.7955 29.507 18.95 29.7387Z" fill="#F87372"/>
<path d="M23.8999 18.05H21.6139C21.4154 16.6734 20.3265 15.5844 18.9499 15.386V13.1C18.9499 12.8511 18.7488 12.65 18.4999 12.65C18.2511 12.65 18.0499 12.8511 18.0499 13.1V15.386C16.6734 15.5844 15.5844 16.6739 15.3859 18.05H13.0999C12.8511 18.05 12.6499 18.2511 12.6499 18.5C12.6499 18.7488 12.8511 18.95 13.0999 18.95H15.3859C15.5844 20.3265 16.6734 21.4155 18.0499 21.614V23.9C18.0499 24.1488 18.2511 24.35 18.4999 24.35C18.7488 24.35 18.9499 24.1488 18.9499 23.9V21.614C20.3265 21.4155 21.4154 20.3261 21.6139 18.95H23.8999C24.1487 18.95 24.3499 18.7488 24.3499 18.5C24.3499 18.2511 24.1487 18.05 23.8999 18.05Z" fill="#F87372"/>
</svg>
