<svg width="31" height="31" viewBox="0 0 31 31" fill="none" xmlns="http://www.w3.org/2000/svg">
<path d="M24.6854 11.5464V8.32407C24.6854 3.73435 20.5647 0 15.5002 0C10.4358 0 6.31505 3.73435 6.31505 8.32407V11.5464C4.36262 11.8828 2.87061 13.5843 2.87061 15.632V26.8506C2.87061 29.1383 4.73233 31 7.02059 31H23.9799C26.2681 31 28.1299 29.1383 28.1299 26.85V15.6315C28.1299 13.5843 26.6378 11.8828 24.6854 11.5464ZM7.4632 8.32407C7.4632 4.36698 11.0684 1.14815 15.5002 1.14815C19.9321 1.14815 23.5373 4.36698 23.5373 8.32407V11.4815H7.4632V8.32407ZM26.9817 26.85C26.9817 28.5051 25.6349 29.8519 23.9799 29.8519H7.02059C5.36553 29.8519 4.01875 28.5051 4.01875 26.85V15.6315C4.01875 13.9764 5.36553 12.6296 7.02059 12.6296H23.9799C25.6349 12.6296 26.9817 13.9764 26.9817 15.6315V26.85Z" fill="white"/>
<path d="M15.5004 16.0741C14.234 16.0741 13.2041 17.104 13.2041 18.3704V21.8148C13.2041 23.0812 14.234 24.1111 15.5004 24.1111C16.7668 24.1111 17.7967 23.0812 17.7967 21.8148V18.3704C17.7967 17.104 16.7668 16.0741 15.5004 16.0741ZM16.6485 21.8148C16.6485 22.448 16.1336 22.963 15.5004 22.963C14.8672 22.963 14.3522 22.448 14.3522 21.8148V18.3704C14.3522 17.7372 14.8672 17.2222 15.5004 17.2222C16.1336 17.2222 16.6485 17.7372 16.6485 18.3704V21.8148Z" fill="white"/>
</svg>
