<svg width="86" height="153" viewBox="0 0 86 153" fill="none" xmlns="http://www.w3.org/2000/svg">
<path fill-rule="evenodd" clip-rule="evenodd" d="M65.089 94.9033C62.6701 99.389 59.984 104.034 57.0649 108.741C42.4992 132.234 26.8 149.776 18.7016 152.329C17.9013 152.771 17.0818 153 16.2477 153C7.27432 153 0 126.471 0 93.7457C0 61.0204 7.27432 34.4913 16.2477 34.4913C25.221 34.4913 32.4953 61.0204 32.4953 93.7457C32.4953 95.9098 32.4635 98.0465 32.4015 100.15C33.3847 98.4869 34.3993 96.8101 35.4438 95.1262C49.9678 71.7014 65.6187 54.1919 73.7373 51.561C74.3089 51.0926 74.8963 50.8489 75.4953 50.8489C76.1321 50.8489 76.7558 51.1244 77.3614 51.6523C77.3782 51.6624 77.3948 51.6726 77.4114 51.6831C77.9465 52.0201 78.3606 52.5321 78.6584 53.205C82.9143 59.7309 86 79.0755 86 101.925C86 130.132 81.2969 153 75.4953 153C69.6937 153 64.9906 130.132 64.9906 101.925C64.9906 99.5429 65.0242 97.1983 65.089 94.9033Z" fill="#DF6D6B"/>
<path d="M16.2347 27.1708C23.2623 27.1708 28.9592 21.0884 28.9592 13.5853C28.9592 6.08238 23.2623 0 16.2347 0C9.20723 0 3.51025 6.08238 3.51025 13.5853C3.51025 21.0884 9.20723 27.1708 16.2347 27.1708Z" fill="#DF6D6B"/>
</svg>
