<svg width="18" height="18" viewBox="0 0 18 18" fill="none" xmlns="http://www.w3.org/2000/svg">
<path fill-rule="evenodd" clip-rule="evenodd" d="M15.4419 1H2C1.44772 1 1 1.44772 1 2V15.4419C1 15.9941 1.44772 16.4419 2 16.4419H5.81395L5.81395 6.97674H1.16279V5.81395H16.2791V6.97674H6.97674L6.97674 16.4419H15.4419C15.9941 16.4419 16.4419 15.9941 16.4419 15.4419V2C16.4419 1.44772 15.9941 1 15.4419 1ZM6.97674 17.4419H5.81395H2C0.895433 17.4419 0 16.5464 0 15.4419V2C0 0.895433 0.895431 0 2 0H15.4419C16.5464 0 17.4419 0.895431 17.4419 2V15.4419C17.4419 16.5464 16.5464 17.4419 15.4419 17.4419H6.97674Z" fill="white"/>
</svg>
