<svg width="19" height="21" viewBox="0 0 19 21" fill="none" xmlns="http://www.w3.org/2000/svg">
<mask id="path-1-inside-1" fill="white">
<path d="M12.3362 17.9094C12.1567 19.4529 10.854 20.6505 9.27362 20.6505C7.69327 20.6505 6.39057 19.4529 6.21102 17.9094H0.930362C0.428223 17.9094 0.0224609 17.5017 0.0224609 16.9968V15.8993C0.0224609 14.7902 0.91668 13.8891 2.01857 13.8891C2.11736 13.8891 2.1992 13.8066 2.1992 13.7058V9.32039C2.1992 6.19431 4.21246 3.47447 7.09688 2.53747V2.19416C7.09688 0.983463 8.07271 0.000976562 9.27362 0.000976562C10.4765 0.000976562 11.4504 0.98141 11.4504 2.19416V2.53752C14.3347 3.47464 16.348 6.19497 16.348 9.32039V13.7058C16.348 13.8086 16.428 13.8891 16.5287 13.8891C17.6289 13.8891 18.5248 14.7899 18.5248 15.8993V16.9968C18.5248 17.4993 18.1174 17.9094 17.6169 17.9094H12.3362ZM11.2361 17.9094H7.31117C7.48178 18.8451 8.29551 19.5541 9.27362 19.5541C10.2517 19.5541 11.0655 18.8451 11.2361 17.9094ZM17.4364 15.8993C17.4364 15.396 17.0282 14.9856 16.5287 14.9856C15.827 14.9856 15.2597 14.4143 15.2597 13.7058V9.32039C15.2597 6.55269 13.3934 4.16002 10.7706 3.48016L10.362 3.37426V2.19416C10.362 1.58713 9.87553 1.09741 9.27362 1.09741C8.67366 1.09741 8.18525 1.58915 8.18525 2.19416V3.37425L7.77665 3.48014C5.1537 4.15992 3.28758 6.55203 3.28758 9.32039V13.7058C3.28758 14.412 2.7186 14.9856 2.01857 14.9856C1.51783 14.9856 1.11083 15.3957 1.11083 15.8993V16.813H17.4364V15.8993Z"/>
</mask>
<path d="M12.3362 17.9094V15.9094H10.5554L10.3496 17.6783L12.3362 17.9094ZM6.21102 17.9094L8.19762 17.6783L7.99184 15.9094H6.21102V17.9094ZM7.09688 2.53747L7.71479 4.43962L9.09688 3.99065V2.53747H7.09688ZM11.4504 2.53752H9.45037V3.99063L10.8324 4.43964L11.4504 2.53752ZM11.2361 17.9094L13.2036 18.2682L13.6337 15.9094H11.2361V17.9094ZM7.31117 17.9094V15.9094H4.91353L5.34361 18.2682L7.31117 17.9094ZM10.7706 3.48016L10.2688 5.41618L10.2688 5.41618L10.7706 3.48016ZM10.362 3.37426H8.36199V4.92194L9.86017 5.31028L10.362 3.37426ZM8.18525 3.37425L8.68701 5.31028L10.1853 4.92199V3.37425H8.18525ZM7.77665 3.48014L7.27489 1.5441L7.27489 1.5441L7.77665 3.48014ZM1.11083 16.813H-0.889167V18.813H1.11083V16.813ZM17.4364 16.813V18.813H19.4364V16.813H17.4364ZM10.3496 17.6783C10.2846 18.2368 9.81542 18.6505 9.27362 18.6505V22.6505C11.8925 22.6505 14.0287 20.6689 14.3228 18.1405L10.3496 17.6783ZM9.27362 18.6505C8.73183 18.6505 8.2626 18.2368 8.19762 17.6783L4.22442 18.1405C4.51855 20.6689 6.65471 22.6505 9.27362 22.6505V18.6505ZM6.21102 15.9094H0.930362V19.9094H6.21102V15.9094ZM0.930362 15.9094C1.54235 15.9094 2.02246 16.4067 2.02246 16.9968H-1.97754C-1.97754 18.5967 -0.6859 19.9094 0.930362 19.9094V15.9094ZM2.02246 16.9968V15.8993H-1.97754V16.9968H2.02246ZM2.02246 15.8993C2.02246 15.8953 2.02283 15.8935 2.0229 15.8932C2.02299 15.8927 2.02307 15.8925 2.02318 15.8922C2.02353 15.8914 2.0246 15.8894 2.0266 15.8874C2.02859 15.8854 2.02901 15.8858 2.02619 15.887C2.02465 15.8877 2.02269 15.8883 2.0206 15.8888C2.01839 15.8892 2.01748 15.8891 2.01857 15.8891V11.8891C-0.201436 11.8891 -1.97754 13.6992 -1.97754 15.8993H2.02246ZM2.01857 15.8891C3.24608 15.8891 4.1992 14.8869 4.1992 13.7058H0.199205C0.199205 12.7264 0.98864 11.8891 2.01857 11.8891V15.8891ZM4.1992 13.7058V9.32039H0.199205V13.7058H4.1992ZM4.1992 9.32039C4.1992 7.06224 5.65312 5.10936 7.71479 4.43962L6.47896 0.635318C2.7718 1.83959 0.199205 5.32638 0.199205 9.32039H4.1992ZM9.09688 2.53747V2.19416H5.09688V2.53747H9.09688ZM9.09688 2.19416C9.09688 2.07425 9.19102 2.00098 9.27362 2.00098V-1.99902C6.95441 -1.99902 5.09688 -0.107322 5.09688 2.19416H9.09688ZM9.27362 2.00098C9.35822 2.00098 9.45037 2.07227 9.45037 2.19416H13.4504C13.4504 -0.109446 11.5947 -1.99902 9.27362 -1.99902V2.00098ZM9.45037 2.19416V2.53752H13.4504V2.19416H9.45037ZM10.8324 4.43964C12.894 5.10948 14.348 7.06289 14.348 9.32039H18.348C18.348 5.32706 15.7754 1.83981 12.0684 0.635392L10.8324 4.43964ZM14.348 9.32039V13.7058H18.348V9.32039H14.348ZM14.348 13.7058C14.348 14.8895 15.2998 15.8891 16.5287 15.8891V11.8891C17.5562 11.8891 18.348 12.7278 18.348 13.7058H14.348ZM16.5287 15.8891C16.5294 15.8891 16.5282 15.8892 16.5259 15.8887C16.5237 15.8882 16.5217 15.8876 16.5203 15.887C16.5176 15.8858 16.5183 15.8856 16.5205 15.8878C16.5227 15.89 16.5238 15.8921 16.5242 15.8929C16.5243 15.8931 16.5243 15.8933 16.5244 15.8936C16.5244 15.8939 16.5248 15.8955 16.5248 15.8993H20.5248C20.5248 13.6976 18.7457 11.8891 16.5287 11.8891V15.8891ZM16.5248 15.8993V16.9968H20.5248V15.8993H16.5248ZM16.5248 16.9968C16.5248 16.4053 17.0023 15.9094 17.6169 15.9094V19.9094C19.2324 19.9094 20.5248 18.5934 20.5248 16.9968H16.5248ZM17.6169 15.9094H12.3362V19.9094H17.6169V15.9094ZM11.2361 15.9094H7.31117V19.9094H11.2361V15.9094ZM5.34361 18.2682C5.68253 20.1269 7.3017 21.5541 9.27362 21.5541V17.5541C9.27242 17.5541 9.27294 17.554 9.27468 17.5543C9.27635 17.5546 9.27816 17.5551 9.27983 17.5557C9.28313 17.5569 9.28391 17.5579 9.28293 17.5571C9.28179 17.5561 9.28051 17.5546 9.27966 17.5531C9.2791 17.5522 9.27892 17.5517 9.27874 17.5506L5.34361 18.2682ZM9.27362 21.5541C11.2455 21.5541 12.8647 20.1269 13.2036 18.2682L9.26851 17.5506C9.26832 17.5517 9.26814 17.5522 9.26759 17.5531C9.26674 17.5546 9.26546 17.5561 9.26432 17.5571C9.26334 17.5579 9.26412 17.5569 9.26742 17.5557C9.26909 17.5551 9.27089 17.5546 9.27256 17.5543C9.2743 17.554 9.27483 17.5541 9.27362 17.5541V21.5541ZM19.4364 15.8993C19.4364 14.3031 18.1445 12.9856 16.5287 12.9856V16.9856C15.912 16.9856 15.4364 16.4888 15.4364 15.8993H19.4364ZM16.5287 12.9856C16.9466 12.9856 17.2597 13.3248 17.2597 13.7058H13.2597C13.2597 15.5038 14.7074 16.9856 16.5287 16.9856V12.9856ZM17.2597 13.7058V9.32039H13.2597V13.7058H17.2597ZM17.2597 9.32039C17.2597 5.6454 14.7813 2.45366 11.2724 1.54414L10.2688 5.41618C12.0056 5.86638 13.2597 7.45997 13.2597 9.32039H17.2597ZM11.2724 1.54415L10.8638 1.43824L9.86017 5.31028L10.2688 5.41618L11.2724 1.54415ZM12.362 3.37426V2.19416H8.36199V3.37426H12.362ZM12.362 2.19416C12.362 0.496459 10.994 -0.902589 9.27362 -0.902589V3.09741C8.75712 3.09741 8.36199 2.6778 8.36199 2.19416H12.362ZM9.27362 -0.902589C7.55517 -0.902589 6.18525 0.498552 6.18525 2.19416H10.1853C10.1853 2.67975 9.79215 3.09741 9.27362 3.09741V-0.902589ZM6.18525 2.19416V3.37425H10.1853V2.19416H6.18525ZM7.68349 1.43821L7.27489 1.5441L8.2784 5.41618L8.68701 5.31028L7.68349 1.43821ZM7.27489 1.5441C3.7659 2.45352 1.28758 5.64471 1.28758 9.32039H5.28758C5.28758 7.45935 6.5415 5.86633 8.2784 5.41618L7.27489 1.5441ZM1.28758 9.32039V13.7058H5.28758V9.32039H1.28758ZM1.28758 13.7058C1.28758 13.3232 1.59837 12.9856 2.01857 12.9856V16.9856C3.83884 16.9856 5.28758 15.5009 5.28758 13.7058H1.28758ZM2.01857 12.9856C0.400307 12.9856 -0.889167 14.3041 -0.889167 15.8993H3.11083C3.11083 16.4873 2.63536 16.9856 2.01857 16.9856V12.9856ZM-0.889167 15.8993V16.813H3.11083V15.8993H-0.889167ZM1.11083 18.813H17.4364V14.813H1.11083V18.813ZM19.4364 16.813V15.8993H15.4364V16.813H19.4364Z" fill="#9D9D9D" mask="url(#path-1-inside-1)"/>
</svg>
