<svg width="21" height="21" viewBox="0 0 21 21" fill="none" xmlns="http://www.w3.org/2000/svg">
<path fill-rule="evenodd" clip-rule="evenodd" d="M18.155 1H2C1.44772 1 1 1.44772 1 2V18.155C1 18.7073 1.44772 19.155 2 19.155H6.71842L6.71842 8.06202H1.34373V6.71835H18.8114V8.06202H8.06209L8.06209 19.155H18.155C18.7073 19.155 19.155 18.7073 19.155 18.155V2C19.155 1.44772 18.7073 1 18.155 1ZM2 0C0.895431 0 0 0.895432 0 2V18.155C0 19.2596 0.895432 20.155 2 20.155H18.155C19.2596 20.155 20.155 19.2596 20.155 18.155V2C20.155 0.895431 19.2596 0 18.155 0H2Z" fill="#ADADAD"/>
</svg>
