<svg width="45" height="45" viewBox="0 0 45 45" fill="none" xmlns="http://www.w3.org/2000/svg">
<path d="M35.4292 12.1723L27.5419 4.28492C27.4176 4.16074 27.2492 4.09091 27.0735 4.09091H15.2424C12.7025 4.09091 10.6362 6.15719 10.6362 8.69711V36.3029C10.6362 38.8428 12.7025 40.9091 15.2424 40.9091H23.1298C23.4956 40.9091 23.7924 40.6124 23.7924 40.2466C23.7924 39.8808 23.4958 39.584 23.1298 39.584H15.2424C13.4331 39.584 11.9612 38.1121 11.9612 36.3028V8.69711C11.9612 6.88781 13.4331 5.41588 15.2424 5.41588H26.7991L34.2983 12.9152V28.4156C34.2983 28.7814 34.5949 29.0781 34.9608 29.0781C35.3266 29.0781 35.6233 28.7815 35.6233 28.4156V12.6408C35.6232 12.465 35.5535 12.2965 35.4292 12.1723Z" fill="white"/>
<path d="M34.961 11.9783H31.0173C29.2081 11.9783 27.7362 10.5064 27.7362 8.69711V4.75345C27.7362 4.38754 27.4396 4.09091 27.0737 4.09091C26.7079 4.09091 26.4111 4.38754 26.4111 4.75345V8.69711C26.4111 11.2369 28.4774 13.3033 31.0172 13.3033H34.9609C35.3267 13.3033 35.6234 13.0067 35.6234 12.6408C35.6234 12.2748 35.3268 11.9783 34.961 11.9783Z" fill="white"/>
<path d="M23.1299 8.03456H15.2426C14.8767 8.03456 14.5801 8.33119 14.5801 8.6971C14.5801 9.06301 14.8767 9.35964 15.2426 9.35964H23.13C23.4958 9.35964 23.7926 9.06301 23.7926 8.6971C23.7925 8.33119 23.4957 8.03456 23.1299 8.03456Z" fill="white"/>
<path d="M28.9219 36.2287L27.5416 34.8485C27.2828 34.5899 26.8633 34.5899 26.6047 34.8485C26.346 35.1072 26.346 35.5267 26.6047 35.7854L27.985 37.1657C28.1144 37.295 28.2838 37.3597 28.4534 37.3597C28.623 37.3597 28.7925 37.295 28.9219 37.1657C29.1807 36.9069 29.1807 36.4874 28.9219 36.2287Z" fill="white"/>
<path d="M33.3019 31.8929C33.0443 31.6331 32.625 31.6311 32.3649 31.8888L27.9876 36.2266C27.7278 36.4842 27.7259 36.9037 27.9835 37.1636C28.1131 37.2943 28.2835 37.3598 28.4541 37.3598C28.6226 37.3598 28.7912 37.2958 28.9204 37.1678L33.2979 32.8298C33.5576 32.5722 33.5595 32.1527 33.3019 31.8929Z" fill="white"/>
<path d="M31.0172 15.922H15.2426C14.8767 15.922 14.5801 16.2186 14.5801 16.5845C14.5801 16.9504 14.8767 17.2471 15.2426 17.2471H31.0173C31.3831 17.2471 31.6798 16.9504 31.6798 16.5845C31.6798 16.2186 31.383 15.922 31.0172 15.922Z" fill="white"/>
<path d="M31.0172 19.8656H15.2426C14.8767 19.8656 14.5801 20.1623 14.5801 20.5282C14.5801 20.8941 14.8767 21.1907 15.2426 21.1907H31.0173C31.3831 21.1907 31.6798 20.8941 31.6798 20.5282C31.6798 20.1623 31.383 19.8656 31.0172 19.8656Z" fill="white"/>
<path d="M31.0172 23.8093H15.2426C14.8767 23.8093 14.5801 24.1059 14.5801 24.4718C14.5801 24.8376 14.8767 25.1344 15.2426 25.1344H31.0173C31.3831 25.1344 31.6798 24.8377 31.6798 24.4718C31.6798 24.1059 31.383 23.8093 31.0172 23.8093Z" fill="white"/>
</svg>
