<svg width="17" height="18" viewBox="0 0 17 18" fill="none" xmlns="http://www.w3.org/2000/svg">
<path d="M0.5 14.8139C0.5 12.8797 2.20617 11.2442 4.38283 11.2442H11.8962C14.0729 11.2442 15.7791 12.8797 15.7791 14.8139V17.2209H15.5268V16.5582V14.8139C15.5268 12.883 13.882 11.407 11.8962 11.407H4.38283C2.39705 11.407 0.752236 12.883 0.752236 14.8139V16.5582V17.1395V17.2209H0.5V14.8139Z" fill="black" stroke="white"/>
<path d="M3.98828 4.93018C3.98828 2.64545 5.85469 0.779053 8.13944 0.779053C10.4242 0.779053 12.2906 2.64545 12.2906 4.93018C12.2906 7.21493 10.4242 9.08138 8.13944 9.08138C5.8547 9.08138 3.98828 7.21493 3.98828 4.93018ZM11.9617 4.93018C11.9617 2.81134 10.2583 1.10797 8.13944 1.10797C6.02061 1.10797 4.31718 2.81134 4.31718 4.93018C4.31718 7.049 6.02059 8.75246 8.13944 8.75246C10.2583 8.75246 11.9617 7.049 11.9617 4.93018Z" fill="black" stroke="white"/>
</svg>
