<svg width="31" height="34" viewBox="0 0 31 34" fill="none" xmlns="http://www.w3.org/2000/svg">
<path d="M15.5 0C13.1569 0 10.8124 0.889774 9.02699 2.67507C7.75323 3.94886 6.95912 5.51787 6.5941 7.15554C2.87075 7.72059 0 10.9204 0 14.7955C0 19.0673 3.47816 22.5455 7.75 22.5455H24.3068C28.0027 22.5455 31 19.5481 31 15.8523C31 12.2617 28.1652 9.35618 24.6151 9.19212C24.6238 6.83705 23.7675 4.46968 21.973 2.67507C20.1877 0.889763 17.8431 0 15.5 0ZM15.5 1.40909C17.4844 1.40909 19.4659 2.16051 20.9822 3.67685C22.6618 5.35642 23.3984 7.60419 23.217 9.79758C23.2078 9.8955 23.2192 9.99428 23.2504 10.0875C23.2817 10.1808 23.3321 10.2664 23.3985 10.339C23.4648 10.4116 23.5457 10.4695 23.6357 10.509C23.7258 10.5484 23.8232 10.5686 23.9215 10.5682H24.3068C27.2464 10.5682 29.5909 12.9127 29.5909 15.8523C29.5909 18.7919 27.2464 21.1364 24.3068 21.1364H7.75C4.23971 21.1364 1.40909 18.3058 1.40909 14.7955C1.40909 11.4637 3.96456 8.73401 7.22159 8.46555C7.37773 8.4531 7.52527 8.38899 7.64089 8.28333C7.75652 8.17767 7.83365 8.03649 7.86009 7.8821C8.11551 6.33925 8.82784 4.86679 10.0178 3.67685C11.5342 2.1605 13.5156 1.40909 15.5 1.40909ZM7.00142 24.3068C6.77581 24.3227 6.56158 24.4485 6.43999 24.6591L5.03089 27.103C4.83634 27.44 4.9471 27.8662 5.28409 28.0607C5.62108 28.2553 6.04728 28.1445 6.24183 27.8075L7.65092 25.3636C7.84548 25.0266 7.73471 24.6005 7.39773 24.4059C7.27136 24.3329 7.13678 24.2972 7.00142 24.3068ZM12.9901 24.3068C12.7644 24.3227 12.5502 24.4485 12.4286 24.6591L11.0195 27.103C10.825 27.44 10.9357 27.8662 11.2727 28.0607C11.6097 28.2553 12.0359 28.1445 12.2305 27.8075L13.6396 25.3636C13.8341 25.0266 13.7234 24.6005 13.3864 24.4059C13.26 24.3329 13.1254 24.2972 12.9901 24.3068ZM18.9787 24.3068C18.7531 24.3227 18.5389 24.4485 18.4173 24.6591L17.0082 27.103C16.8136 27.44 16.9244 27.8662 17.2614 28.0607C17.5984 28.2553 18.0246 28.1445 18.2191 27.8075L19.6282 25.3636C19.8228 25.0266 19.712 24.6005 19.375 24.4059C19.2486 24.3329 19.1141 24.2972 18.9787 24.3068ZM24.9673 24.3068C24.7417 24.3227 24.5275 24.4485 24.4059 24.6591L22.9968 27.103C22.8022 27.44 22.913 27.8662 23.25 28.0607C23.587 28.2553 24.0132 28.1445 24.2077 27.8075L25.6168 25.3636C25.8114 25.0266 25.7006 24.6005 25.3636 24.4059C25.2373 24.3329 25.1027 24.2972 24.9673 24.3068ZM8.41051 29.2607C8.18491 29.2765 7.97067 29.4023 7.84908 29.6129L6.43999 32.0568C6.24543 32.3938 6.35619 32.82 6.69318 33.0146C7.03017 33.2091 7.45637 33.0983 7.65092 32.7614L9.06001 30.3175C9.25457 29.9805 9.14381 29.5543 8.80682 29.3597C8.68045 29.2868 8.54588 29.2511 8.41051 29.2607ZM14.3991 29.2607C14.1735 29.2765 13.9593 29.4023 13.8377 29.6129L12.4286 32.0568C12.2341 32.3938 12.3448 32.82 12.6818 33.0146C13.0188 33.2091 13.445 33.0983 13.6396 32.7614L15.0486 30.3175C15.2432 29.9805 15.1324 29.5543 14.7955 29.3597C14.6691 29.2868 14.5345 29.2511 14.3991 29.2607ZM20.3878 29.2607C20.1622 29.2765 19.9479 29.4023 19.8263 29.6129L18.4173 32.0568C18.2227 32.3938 18.3335 32.82 18.6705 33.0146C19.0074 33.2091 19.4336 33.0983 19.6282 32.7614L21.0373 30.3175C21.2318 29.9805 21.1211 29.5543 20.7841 29.3597C20.6577 29.2868 20.5231 29.2511 20.3878 29.2607Z" fill="white"/>
</svg>
