<svg width="32" height="32" viewBox="0 0 32 32" fill="none" xmlns="http://www.w3.org/2000/svg">
<path d="M30.3526 12.4444H27.3588C26.8776 12.4444 26.4812 12.1796 26.2969 11.7351C26.1126 11.2907 26.2062 10.8225 26.5458 10.4824L28.6625 8.36622C28.9736 8.05511 29.1449 7.64089 29.1449 7.20119C29.1449 6.76089 28.9736 6.34726 28.6625 6.03556L25.9644 3.33748C25.3422 2.71526 24.2572 2.71407 23.6338 3.33748L21.5176 5.45363C21.1775 5.79319 20.7081 5.888 20.2649 5.70311C19.8204 5.51881 19.5556 5.12237 19.5556 4.64119V1.64741C19.5556 0.738963 18.8166 0 17.9081 0H14.0919C13.1834 0 12.4444 0.738963 12.4444 1.64741V4.64119C12.4444 5.12237 12.1796 5.51881 11.7351 5.70311C11.2919 5.88859 10.8225 5.79319 10.4824 5.45363L8.36622 3.33748C7.74282 2.71407 6.65778 2.71526 6.03556 3.33748L3.33748 6.03556C3.02637 6.34667 2.85511 6.76089 2.85511 7.20119C2.85511 7.64089 3.02637 8.05452 3.33748 8.36622L5.45422 10.4824C5.79378 10.8225 5.88681 11.2907 5.70311 11.7351C5.51941 12.1796 5.12237 12.4444 4.64119 12.4444H1.64741C0.738963 12.4444 0 13.1834 0 14.0919V17.9076C0 18.8166 0.738963 19.5556 1.64741 19.5556H4.64119C5.12237 19.5556 5.51881 19.8204 5.70311 20.2649C5.88741 20.7093 5.79378 21.1775 5.45422 21.5176L3.33748 23.6338C3.02637 23.9449 2.85511 24.3591 2.85511 24.7988C2.85511 25.2391 3.02637 25.6527 3.33748 25.9644L6.03556 28.6625C6.65837 29.2853 7.74282 29.2865 8.36622 28.6625L10.4824 26.5458C10.8225 26.2062 11.2901 26.1126 11.7351 26.2969C12.1796 26.4812 12.4444 26.8776 12.4444 27.3588V30.3526C12.4444 31.261 13.1834 32 14.0919 32H17.9076C18.816 32 19.555 31.261 19.555 30.3526V27.3588C19.555 26.8776 19.8199 26.4812 20.2643 26.2969C20.7093 26.112 21.1769 26.2062 21.517 26.5458L23.6332 28.6625C24.2566 29.2859 25.3416 29.2847 25.9639 28.6625L28.6619 25.9644C28.973 25.6533 29.1443 25.2391 29.1443 24.7988C29.1443 24.3591 28.973 23.9455 28.6619 23.6338L26.5452 21.5176C26.2056 21.1775 26.1126 20.7093 26.2963 20.2649C26.48 19.8204 26.8776 19.5556 27.3588 19.5556H30.3526C31.261 19.5556 32 18.8166 32 17.9081V14.0919C32 13.1834 31.261 12.4444 30.3526 12.4444ZM30.8148 17.9081C30.8148 18.163 30.6074 18.3704 30.3526 18.3704H27.3588C26.3964 18.3704 25.5698 18.9227 25.2018 19.8116C24.8332 20.7004 25.027 21.6759 25.7079 22.3561L27.8246 24.4723C28.0053 24.653 28.0053 24.9464 27.8246 25.1265L25.1265 27.8246C24.9464 28.0047 24.653 28.0059 24.4723 27.8246L22.3561 25.7079C21.6753 25.027 20.7004 24.8344 19.8116 25.2018C18.9227 25.5698 18.3704 26.3964 18.3704 27.3588V30.3526C18.3704 30.6074 18.163 30.8148 17.9081 30.8148H14.0919C13.837 30.8148 13.6296 30.6074 13.6296 30.3526V27.3588C13.6296 26.3964 13.0773 25.5698 12.1884 25.2018C11.8904 25.0779 11.5834 25.0175 11.28 25.0175C10.6791 25.0175 10.0966 25.2545 9.64385 25.7073L7.5277 27.824C7.34637 28.0053 7.05304 28.0041 6.87348 27.824L4.17541 25.1259C3.99467 24.9452 3.99467 24.6519 4.17541 24.4717L6.29215 22.3556C6.97244 21.6753 7.16681 20.6999 6.79822 19.811C6.43022 18.9227 5.60356 18.3704 4.64119 18.3704H1.64741C1.39259 18.3704 1.18519 18.163 1.18519 17.9081V14.0919C1.18519 13.837 1.39259 13.6296 1.64741 13.6296H4.64119C5.60356 13.6296 6.43022 13.0773 6.79822 12.1884C7.16681 11.2996 6.97304 10.3241 6.29215 9.64385L4.17541 7.5277C3.99467 7.34696 3.99467 7.05363 4.17541 6.87348L6.87348 4.17541C7.05363 3.99467 7.34696 3.99467 7.5277 4.17541L9.64385 6.29156C10.3236 6.97126 11.2984 7.16622 12.1884 6.79763C13.0773 6.43022 13.6296 5.60356 13.6296 4.64119V1.64741C13.6296 1.39259 13.837 1.18519 14.0919 1.18519H17.9076C18.163 1.18519 18.3704 1.39259 18.3704 1.64741V4.64119C18.3704 5.60356 18.9227 6.43022 19.8116 6.79822C20.7016 7.16681 21.6759 6.97244 22.3561 6.29215L24.4723 4.176C24.6536 3.99526 24.947 3.99526 25.1265 4.176L27.8246 6.87407C28.0053 7.05482 28.0053 7.34815 27.8246 7.5283L25.7079 9.64444C25.0276 10.3247 24.8332 11.3001 25.2018 12.189C25.5698 13.0779 26.3964 13.6302 27.3588 13.6302H30.3526C30.6074 13.6296 30.8148 13.837 30.8148 14.0919V17.9081Z" fill="white"/>
<path d="M15.9998 10.6667C13.0588 10.6667 10.6665 13.059 10.6665 16C10.6665 18.941 13.0588 21.3333 15.9998 21.3333C18.9409 21.3333 21.3332 18.941 21.3332 16C21.3332 13.059 18.9409 10.6667 15.9998 10.6667ZM15.9998 20.1481C13.713 20.1481 11.8517 18.2868 11.8517 16C11.8517 13.7132 13.713 11.8519 15.9998 11.8519C18.2867 11.8519 20.148 13.7132 20.148 16C20.148 18.2868 18.2867 20.1481 15.9998 20.1481Z" fill="white"/>
</svg>
