<svg width="23" height="26" viewBox="0 0 23 26" fill="none" xmlns="http://www.w3.org/2000/svg">
<path d="M11.1232 0.00233285C11.0614 0.00874513 11.0008 0.0246701 10.9438 0.0495452L0.368272 4.58193C0.258937 4.62833 0.165698 4.70591 0.100201 4.80499C0.0347036 4.90407 -0.000147739 5.02026 4.70753e-07 5.13903C4.70753e-07 11.9786 1.41558 16.3762 3.5126 19.4633C5.60961 22.5503 8.35055 24.2844 10.8494 25.8842C10.9466 25.9464 11.0597 25.9795 11.1752 25.9795C11.2906 25.9795 11.4037 25.9464 11.5009 25.8842C13.9998 24.2844 16.7404 22.5503 18.8377 19.4633C20.935 16.3762 22.3598 11.9786 22.3598 5.13903C22.3599 5.02026 22.3251 4.90407 22.2596 4.80499C22.1941 4.70591 22.1008 4.62833 21.9915 4.58193L11.4159 0.0495452C11.3238 0.00974932 11.2232 -0.00647633 11.1232 0.00233285ZM11.1799 1.25818L21.1322 5.51673C21.0769 11.948 19.7468 15.986 17.8463 18.7834C15.9909 21.5144 13.5732 23.1217 11.1799 24.6566C8.78485 23.1206 6.37002 21.5165 4.5135 18.7834C2.61325 15.986 1.28285 11.948 1.22752 5.51673L11.1799 1.25818Z" fill="white"/>
</svg>
