<svg width="34" height="42" viewBox="0 0 34 42" fill="none" xmlns="http://www.w3.org/2000/svg">
<g clip-path="url(#clip0)">
<path d="M30.4583 18.9378C30.4872 19.0443 30.4946 19.1555 30.4801 19.2649C30.4655 19.3742 30.4293 19.4797 30.3736 19.5752C30.3178 19.6708 30.2435 19.7546 30.155 19.8217C30.0665 19.8889 29.9654 19.9382 29.8576 19.9668L26.0227 20.9818L29.6933 23.072C29.7921 23.126 29.879 23.199 29.9489 23.2866C30.0189 23.3742 30.0705 23.4747 30.1007 23.5822C30.1309 23.6898 30.1391 23.8022 30.1249 23.9129C30.1107 24.0236 30.0742 24.1304 30.0178 24.227C29.9613 24.3237 29.8859 24.4082 29.796 24.4758C29.7061 24.5433 29.6034 24.5924 29.4941 24.6203C29.3848 24.6482 29.2709 24.6543 29.1591 24.6382C29.0474 24.6221 28.94 24.5842 28.8433 24.5266L25.1798 22.4364L26.2068 26.2276C26.2358 26.3341 26.2432 26.4453 26.2286 26.5546C26.2141 26.664 26.1779 26.7695 26.1222 26.865C26.0664 26.9606 25.9921 27.0444 25.9036 27.1115C25.815 27.1787 25.714 27.228 25.6062 27.2566C25.5346 27.2757 25.4608 27.2855 25.3866 27.286C25.1996 27.2858 25.0178 27.2247 24.8695 27.112C24.7212 26.9994 24.6147 26.8416 24.5663 26.663L23.1001 21.2506L17.8499 18.2546V24.2438L21.8591 28.2058C21.9391 28.2835 22.0028 28.3761 22.0464 28.4783C22.09 28.5805 22.1128 28.6901 22.1133 28.801C22.1138 28.9119 22.0921 29.0218 22.0494 29.1243C22.0068 29.2269 21.944 29.3201 21.8647 29.3985C21.7854 29.477 21.6912 29.5392 21.5875 29.5814C21.4837 29.6237 21.3726 29.6453 21.2604 29.6449C21.1481 29.6445 21.0371 29.6222 20.9337 29.5792C20.8303 29.5362 20.7365 29.4734 20.6578 29.3944L17.8499 26.6196V30.8C17.8499 31.0228 17.7604 31.2364 17.601 31.394C17.4416 31.5515 17.2254 31.64 16.9999 31.64C16.7745 31.64 16.5583 31.5515 16.3989 31.394C16.2395 31.2364 16.1499 31.0228 16.1499 30.8V26.6196L13.3421 29.4C13.2633 29.479 13.1696 29.5418 13.0661 29.5848C12.9627 29.6278 12.8517 29.6501 12.7395 29.6505C12.6273 29.6509 12.5161 29.6293 12.4124 29.587C12.3087 29.5448 12.2144 29.4826 12.1351 29.4041C12.0558 29.3257 11.9931 29.2325 11.9504 29.1299C11.9077 29.0274 11.886 28.9175 11.8865 28.8066C11.8871 28.6957 11.9098 28.5861 11.9534 28.4839C11.9971 28.3817 12.0607 28.2891 12.1408 28.2114L16.1499 24.2494V18.2546L10.8998 21.2506L9.4335 26.6616C9.38518 26.8402 9.27862 26.998 9.13033 27.1106C8.98203 27.2233 8.80028 27.2844 8.61325 27.2846C8.53908 27.2841 8.46529 27.2743 8.39367 27.2552C8.28586 27.2266 8.1848 27.1773 8.09627 27.1101C8.00774 27.043 7.93346 26.9592 7.87768 26.8636C7.82191 26.7681 7.78572 26.6626 7.77119 26.5532C7.75666 26.4439 7.76407 26.3327 7.793 26.2262L8.82008 22.435L5.15659 24.528C5.05984 24.5856 4.95245 24.6235 4.84071 24.6396C4.72896 24.6557 4.61508 24.6496 4.50574 24.6217C4.39639 24.5938 4.29377 24.5447 4.20386 24.4772C4.11395 24.4096 4.03855 24.3251 3.98208 24.2284C3.92561 24.1318 3.88919 24.025 3.87495 23.9143C3.86071 23.8036 3.86893 23.6912 3.89914 23.5836C3.92935 23.4761 3.98094 23.3756 4.0509 23.288C4.12086 23.2004 4.20778 23.1274 4.30659 23.0734L7.97008 20.9832L4.13517 19.9682C4.02699 19.9397 3.92554 19.8904 3.83663 19.8232C3.74772 19.756 3.67308 19.6721 3.61697 19.5763C3.56087 19.4806 3.5244 19.3748 3.50964 19.2652C3.49488 19.1555 3.50212 19.044 3.53096 18.9371C3.5892 18.7212 3.73184 18.537 3.92751 18.425C4.0244 18.3696 4.13139 18.3335 4.24237 18.3189C4.35335 18.3043 4.46615 18.3115 4.57434 18.34L10.0583 19.7946L15.2999 16.8L10.0583 13.8054L4.57434 15.26C4.50272 15.2791 4.42892 15.2889 4.35475 15.2894C4.14816 15.2899 3.94846 15.216 3.79299 15.0815C3.63753 14.9471 3.53694 14.7612 3.51003 14.5588C3.48313 14.3564 3.53174 14.1512 3.64679 13.9816C3.76185 13.812 3.93546 13.6897 4.13517 13.6374L7.97008 12.6224L4.30659 10.528C4.11575 10.4145 3.97765 10.2314 3.92198 10.0183C3.86631 9.80515 3.89754 9.57892 4.00893 9.3883C4.12032 9.19767 4.30298 9.05787 4.51761 8.99898C4.73224 8.94009 4.96169 8.96682 5.15659 9.07341L8.82008 11.1636L7.79158 7.37241C7.75748 7.2644 7.7458 7.15069 7.75726 7.03812C7.76872 6.92554 7.80307 6.81641 7.85826 6.71727C7.91345 6.61814 7.98834 6.53105 8.07843 6.46122C8.16852 6.39139 8.27195 6.34027 8.38253 6.31093C8.4931 6.28158 8.60854 6.27461 8.7219 6.29044C8.83527 6.30627 8.94423 6.34456 9.04225 6.40304C9.14027 6.46151 9.22533 6.53894 9.29232 6.6307C9.35931 6.72246 9.40685 6.82664 9.43209 6.93701L10.8998 12.3494L16.1499 15.3454V9.35621L12.1408 5.39421C11.9805 5.23677 11.8901 5.02288 11.8894 4.79958C11.8888 4.57628 11.9779 4.36187 12.1372 4.20351C12.2965 4.04515 12.513 3.95581 12.7389 3.95515C12.9649 3.9545 13.1818 4.04257 13.3421 4.20001L16.1499 6.98041V2.80001C16.1499 2.57722 16.2395 2.36357 16.3989 2.20604C16.5583 2.04851 16.7745 1.96001 16.9999 1.96001C17.2254 1.96001 17.4416 2.04851 17.601 2.20604C17.7604 2.36357 17.8499 2.57722 17.8499 2.80001V6.98041L20.6578 4.20001C20.8177 4.04468 21.0333 3.95811 21.2575 3.95914C21.4817 3.96017 21.6965 4.04872 21.8549 4.20551C22.0134 4.3623 22.1028 4.57461 22.1035 4.79621C22.1043 5.01781 22.0164 5.23074 21.8591 5.38861L17.8499 9.35621V15.3454L23.1001 12.3494L24.5663 6.93701C24.5916 6.82664 24.6391 6.72246 24.7061 6.6307C24.7731 6.53894 24.8581 6.46151 24.9562 6.40304C25.0542 6.34456 25.1632 6.30627 25.2765 6.29044C25.3899 6.27461 25.5053 6.28158 25.6159 6.31093C25.7265 6.34027 25.8299 6.39139 25.92 6.46122C26.0101 6.53105 26.085 6.61814 26.1402 6.71727C26.1953 6.81641 26.2297 6.92554 26.2412 7.03812C26.2526 7.15069 26.2409 7.2644 26.2068 7.37241L25.1798 11.1636L28.8433 9.07201C29.0381 8.96542 29.2676 8.93869 29.4822 8.99758C29.6969 9.05647 29.8795 9.19627 29.9909 9.3869C30.1023 9.57752 30.1335 9.80375 30.0779 10.0169C30.0222 10.23 29.8841 10.4131 29.6933 10.5266L26.0298 12.6182L29.8647 13.6332C30.0644 13.6855 30.238 13.8078 30.353 13.9774C30.4681 14.147 30.5167 14.3522 30.4898 14.5546C30.4629 14.757 30.3623 14.9429 30.2068 15.0773C30.0514 15.2118 29.8517 15.2857 29.6451 15.2852C29.5709 15.2847 29.4971 15.2749 29.4255 15.2558L23.9416 13.8054L18.6999 16.8L23.9416 19.7946L29.4255 18.34C29.6426 18.2849 29.873 18.3169 30.0664 18.4288C30.2598 18.5408 30.4007 18.7237 30.4583 18.9378Z" fill="white"/>
</g>
<defs>
<clipPath id="clip0">
<rect width="34" height="42" fill="white"/>
</clipPath>
</defs>
</svg>
