<svg width="41" height="42" viewBox="0 0 41 42" fill="none" xmlns="http://www.w3.org/2000/svg">
<path d="M39.7143 20.8519C39.7143 32.1092 30.9189 41.2037 20.1071 41.2037C9.2954 41.2037 0.5 32.1092 0.5 20.8519C0.5 9.59454 9.2954 0.5 20.1071 0.5C30.9189 0.5 39.7143 9.59454 39.7143 20.8519Z" fill="#F2C94C" fill-opacity="0.3" stroke="#FFDA69"/>
<circle cx="20.1071" cy="20.4627" r="14.9322" fill="#FFDA69"/>
<path d="M25.3332 18.8002V27.5H14.6669V18.8002V18.1153L14.0145 18.324L11.9664 18.9792L10.6216 15.4296L15.9613 12.5H17.0441C17.2902 13.8765 18.5353 14.8999 20 14.8999C21.4647 14.8999 22.7097 13.8765 22.9559 12.5H24.0387L29.3784 15.4296L28.0336 18.9792L25.9855 18.324L25.3332 18.1153V18.8002Z" stroke="white"/>
</svg>
